<svg width="121" height="132" viewBox="0 0 121 132" fill="none" xmlns="http://www.w3.org/2000/svg">
<g clip-path="url(#clip0_327_210)">
<path d="M26.46 59.6301C25.16 59.9801 23.81 60.1601 22.99 60.1601C22.11 60.1601 20.81 59.9801 19.16 59.5701V56.6901L19.28 43.3301C16.81 43.3301 14.28 43.3901 11.8 43.3901C11.92 47.4501 12.04 51.8701 12.09 55.6301C10.27 56.0401 9.09 56.2201 8.32 56.2201C7.55 56.2201 6.14 56.1001 4.79 55.9301L4.5 43.3901H0.5V36.9701H4.44L4.03 12.1901C5.85 11.7801 7.03 11.6001 7.86 11.6001C8.57 11.6001 9.21 11.6001 11.33 12.0101L11.74 36.9701C14.27 36.9701 16.8 36.9101 19.33 36.9101C19.39 27.2601 19.51 17.0701 19.62 7.48008C21.27 7.01008 22.27 6.83008 23.09 6.83008C23.91 6.83008 25.03 7.01008 26.92 7.36008L26.63 36.9101C28.63 36.9101 30.87 36.8501 32.34 36.8501V43.1501L26.57 43.2701C26.57 48.6901 26.51 54.5101 26.45 59.6401L26.46 59.6301Z" fill="white"/>
<path d="M57.35 60.5802C55.35 61.8502 53.67 62.5202 52.08 62.6002C51.84 62.6102 51.61 62.5602 51.43 62.5702C50.76 60.8302 50.31 57.6102 50.25 56.4402C48.62 58.0502 46.04 59.6502 43.93 59.7502C38.17 60.0302 33.43 57.0702 33.14 51.1302C32.81 44.3102 37.09 38.8602 43.79 38.5402C45.32 38.4702 47.28 38.9002 48.85 39.6502L48.7 36.5902C48.29 30.4802 47.4 30.4102 45.34 30.4502C41.99 30.6102 38.84 32.6502 37.28 34.4302C35.39 33.0502 34.86 29.5402 34.99 27.2902C37.71 25.1002 40.9 23.9402 44.49 23.7702C52.55 23.3802 55.73 27.1802 56.2 36.8202C56.32 39.3502 56.44 45.5302 56.52 47.2402C56.83 53.6502 57.72 57.3802 59.36 58.5402C59.07 58.7302 58.25 60.0102 57.34 60.5802H57.35ZM44.1 43.5902C41.98 43.6902 40.57 47.4102 40.68 49.5902C40.84 53.0002 42.27 54.4102 44.21 54.3102C45.97 54.2302 48.14 52.6502 48.93 50.6602C49.5 49.0402 50.02 47.7002 49.43 46.2702C48.55 44.1502 46.11 43.4802 44.11 43.5802L44.1 43.5902Z" fill="white"/>
<path d="M73.12 59.5701C65.11 59.3701 61.01 53.6401 61.01 45.4401C61.01 37.2401 65.83 28.8301 75.27 28.8301C79.7 28.8301 82.69 30.3301 86.34 33.9701C84.91 35.9201 83.41 37.7501 81.98 39.6401C78.72 36.4501 77.03 35.8001 76.31 35.8001C71.82 35.4101 69.67 40.7501 69.67 45.2401C69.67 49.3401 70.13 52.0801 74.88 52.0801C78.92 52.0801 80.61 50.4501 84.32 47.5201L87.45 53.6401C85.56 55.6601 80.68 59.7601 73.12 59.5701Z" fill="white"/>
<path d="M113.28 63.5202C109.87 59.3402 105.39 52.3902 99.56 39.6802C98.97 40.2702 98.15 41.1502 97.03 42.2102C97.62 48.6902 97.91 51.3902 98.09 56.0402L98.21 59.2202C96.09 59.5702 94.56 59.6302 93.15 59.6302C92.33 59.6302 90.97 59.6302 90.21 59.5702C90.27 57.8002 90.33 56.8602 90.39 56.2102C90.45 48.5002 89.86 44.4402 88.8 27.7202C88.21 18.7102 86.56 9.00023 85.92 1.05023C88.04 0.170234 89.39 -0.00976562 91.22 -0.00976562C91.87 -0.00976562 92.81 0.0502344 93.93 0.230234C93.93 0.580234 93.87 1.11023 93.81 1.82023L93.93 7.41023C94.4 13.3002 94.87 18.7702 95.46 24.4202L96.4 34.0202C96.4 34.0202 100.52 29.6602 102.11 27.7202L108.82 19.2402C110.7 21.3602 113.47 24.1302 115.06 26.1902C111.82 28.1302 106.99 31.9602 104.46 35.3702C106.81 41.3702 108.99 44.9702 111.94 49.9102C114.24 53.8502 118.18 56.9702 120.53 57.4502C119.59 60.4502 114.76 63.3402 113.29 63.5102L113.28 63.5202Z" fill="white"/>
<path d="M21.79 99.7904C20.62 100.46 19.66 100.79 18.76 100.79C18.63 100.79 18.49 100.76 18.39 100.76C18.06 99.7604 17.89 97.9304 17.89 97.2604C16.92 98.1304 15.43 98.9604 14.23 98.9604C10.97 98.9604 8.37 97.1604 8.37 93.8004C8.37 89.9404 10.93 86.9704 14.73 86.9704C15.6 86.9704 16.69 87.2704 17.56 87.7404V86.0104C17.49 82.5504 16.99 82.4804 15.83 82.4504C13.93 82.4504 12.1 83.5204 11.17 84.4804C10.14 83.6504 9.93999 81.6504 10.07 80.3804C11.67 79.2104 13.5 78.6504 15.53 78.6504C20.09 78.6504 21.79 80.8804 21.79 86.3404C21.79 87.7704 21.69 91.2704 21.69 92.2304C21.69 95.8604 22.09 97.9904 22.99 98.6904C22.82 98.7904 22.32 99.4904 21.79 99.7904ZM14.77 89.8404C13.57 89.8404 12.67 91.9004 12.67 93.1404C12.67 95.0704 13.44 95.9004 14.53 95.9004C15.53 95.9004 16.79 95.0704 17.29 93.9704C17.66 93.0704 17.98 92.3304 17.69 91.5104C17.25 90.2904 15.89 89.8404 14.76 89.8404H14.77Z" fill="white"/>
<path d="M60.83 103.26C58.14 107.34 54.13 108.99 50.75 108.99C48.25 108.99 45.81 107.59 43.18 105.27L42.87 108.93L42.49 117.58C42.3 120.08 42.05 123.43 41.49 127.45L41.11 131.9C38.42 131.84 35.6 131.35 33.29 130.44C33.98 125.93 34.48 121.79 34.85 118.8L35.1 116.85C35.23 115.75 35.23 114.23 35.29 112.46L35.48 107.71C35.92 103.99 36.86 89.4305 36.86 86.3805C36.86 83.5805 36.61 80.9005 36.05 78.5205C38.62 77.4205 40.68 76.8105 42.37 76.8105C42.81 76.8105 44.44 76.7505 46 77.4205C45.87 77.8505 45.5 80.6505 45.44 82.0505C47.51 80.1005 50.57 78.7605 53.08 78.7605C53.46 78.7605 53.71 78.7605 54.02 78.8205C60.72 80.0405 63.91 86.8605 63.91 92.5905C63.91 93.0205 63.85 93.5005 63.85 93.9305C63.6 96.8505 62.6 100.57 60.85 103.25L60.83 103.26ZM55.95 89.7905C55.43 85.3805 53.25 85.0205 52.22 85.0205C48.9 85.0205 45.78 87.2905 44.62 90.7705C44.49 91.1705 44.24 92.4205 44.24 92.4205C44.05 94.4005 43.44 97.3705 43.86 98.6405C44.23 99.7305 44.89 100.09 44.89 100.09C46.64 101.55 48.05 101.81 49.05 101.93H49.93C51.18 101.75 52.37 101.02 53.56 99.6805L54.31 98.5805C55.5 96.8105 55.94 94.6805 56.19 92.5505V91.9405C56.19 91.0905 56.06 90.3605 55.94 89.8105L55.95 89.7905Z" fill="white"/>
<path d="M84.18 105.2C85 105.2 86.75 104.93 89.05 104.65C88.72 107.61 87.74 110.35 86.04 113.08L83.08 112.53C69.39 110.18 66.27 101.3 66.27 93.5804C66.27 84.0504 72.4 78.3604 77.88 78.3604H78.65C86.21 78.8004 89.99 84.2704 89.99 94.5104V95.3904L73.78 98.3503C75.2 103 78.65 105.19 84.18 105.19V105.2ZM78.1 84.1804C75.31 84.1804 73.12 88.9404 73.12 92.8904L82.21 91.2504C81.94 86.1004 81.11 84.1904 78.1 84.1904V84.1804Z" fill="white"/>
<path d="M103.8 90.6902C103.8 92.2702 103.75 96.4802 103.75 103.06C103.75 105.5 104.45 108.24 105.74 108.24C107.03 108.24 108.97 104.89 109.4 103.18C111.5 103.36 113.11 104.15 114.4 105.92C112.46 113.35 107.73 116.46 103.32 116.46C102.94 116.46 102.41 116.4 101.92 116.22H101.97C98.37 115.43 96.86 111.89 96.86 105.38V99.4702C96.86 98.7402 96.91 97.9501 96.91 97.0901V91.3602L92.39 91.7302V84.7202C93.68 84.7202 95.99 84.7202 96.75 84.6602C96.75 77.5902 97.07 74.3602 97.66 65.5302C98.36 65.4702 99.06 65.4102 99.76 65.4102C101.48 65.4102 103.04 65.7102 104.44 66.3202C103.9 72.6002 103.58 78.6302 103.58 83.8702L108.85 83.3801L113.64 83.0102C114.34 84.6502 114.23 86.4202 114.23 87.4602C114.23 88.5002 114.12 89.7801 114.01 90.4501C111.16 90.5701 108.15 90.3302 103.79 90.6902H103.8Z" fill="white"/>
<path d="M23.44 103.62H8.26001V107.84H23.44V103.62Z" fill="white"/>
</g>
<defs>
<clipPath id="clip0_327_210">
<rect width="120.02" height="131.89" fill="white" transform="translate(0.5)"/>
</clipPath>
</defs>
</svg>
