<svg width="121" height="132" viewBox="0 0 121 132" fill="none" xmlns="http://www.w3.org/2000/svg">
<g clip-path="url(#clip0_327_184)">
<path d="M26.46 59.6301C25.16 59.9801 23.81 60.1601 22.99 60.1601C22.11 60.1601 20.81 59.9801 19.16 59.5701V56.6901L19.28 43.3301C16.81 43.3301 14.28 43.3901 11.8 43.3901C11.92 47.4501 12.04 51.8701 12.09 55.6301C10.27 56.0401 9.09 56.2201 8.32 56.2201C7.55 56.2201 6.14 56.1001 4.79 55.9301L4.5 43.3901H0.5V36.9701H4.44L4.03 12.1901C5.85 11.7801 7.03 11.6001 7.86 11.6001C8.57 11.6001 9.21 11.6001 11.33 12.0101L11.74 36.9701C14.27 36.9701 16.8 36.9101 19.33 36.9101C19.39 27.2601 19.51 17.0701 19.62 7.48008C21.27 7.01008 22.27 6.83008 23.09 6.83008C23.91 6.83008 25.03 7.01008 26.92 7.36008L26.63 36.9101C28.63 36.9101 30.87 36.8501 32.34 36.8501V43.1501L26.57 43.2701C26.57 48.6901 26.51 54.5101 26.45 59.6401L26.46 59.6301Z" fill="#141414"/>
<path d="M57.3499 60.5802C55.3499 61.8502 53.6699 62.5202 52.0799 62.6002C51.8399 62.6102 51.6099 62.5602 51.4299 62.5702C50.7599 60.8302 50.3099 57.6102 50.2499 56.4402C48.6199 58.0502 46.0399 59.6502 43.9299 59.7502C38.1699 60.0302 33.4299 57.0702 33.1399 51.1302C32.8099 44.3102 37.0899 38.8602 43.7899 38.5402C45.3199 38.4702 47.2799 38.9002 48.8499 39.6502L48.6999 36.5902C48.2899 30.4802 47.3999 30.4102 45.3399 30.4502C41.9899 30.6102 38.8399 32.6502 37.2799 34.4302C35.3899 33.0502 34.8599 29.5402 34.9899 27.2902C37.7099 25.1002 40.8999 23.9402 44.4899 23.7702C52.5499 23.3802 55.7299 27.1802 56.1999 36.8202C56.3199 39.3502 56.4399 45.5302 56.5199 47.2402C56.8299 53.6502 57.7199 57.3802 59.3599 58.5402C59.0699 58.7302 58.2499 60.0102 57.3399 60.5802H57.3499ZM44.0999 43.5902C41.9799 43.6902 40.5699 47.4102 40.6799 49.5902C40.8399 53.0002 42.2699 54.4102 44.2099 54.3102C45.9699 54.2302 48.1399 52.6502 48.9299 50.6602C49.4999 49.0402 50.0199 47.7002 49.4299 46.2702C48.5499 44.1502 46.1099 43.4802 44.1099 43.5802L44.0999 43.5902Z" fill="#141414"/>
<path d="M73.12 59.5701C65.11 59.3701 61.01 53.6401 61.01 45.4401C61.01 37.2401 65.83 28.8301 75.27 28.8301C79.7 28.8301 82.69 30.3301 86.34 33.9701C84.91 35.9201 83.41 37.7501 81.98 39.6401C78.72 36.4501 77.03 35.8001 76.31 35.8001C71.82 35.4101 69.67 40.7501 69.67 45.2401C69.67 49.3401 70.13 52.0801 74.88 52.0801C78.92 52.0801 80.61 50.4501 84.32 47.5201L87.45 53.6401C85.56 55.6601 80.68 59.7601 73.12 59.5701Z" fill="#141414"/>
<path d="M113.28 63.5202C109.87 59.3402 105.39 52.3902 99.5599 39.6802C98.9699 40.2702 98.1499 41.1502 97.0299 42.2102C97.6199 48.6902 97.9099 51.3902 98.0899 56.0402L98.2099 59.2202C96.0899 59.5702 94.5599 59.6302 93.1499 59.6302C92.3299 59.6302 90.9699 59.6302 90.2099 59.5702C90.2699 57.8002 90.3299 56.8602 90.3899 56.2102C90.4499 48.5002 89.8599 44.4402 88.7999 27.7202C88.2099 18.7102 86.5599 9.00023 85.9199 1.05023C88.0399 0.170234 89.3899 -0.00976562 91.2199 -0.00976562C91.8699 -0.00976562 92.8099 0.0502344 93.9299 0.230234C93.9299 0.580234 93.8699 1.11023 93.8099 1.82023L93.9299 7.41023C94.3999 13.3002 94.8699 18.7702 95.4599 24.4202L96.3999 34.0202C96.3999 34.0202 100.52 29.6602 102.11 27.7202L108.82 19.2402C110.7 21.3602 113.47 24.1302 115.06 26.1902C111.82 28.1302 106.99 31.9602 104.46 35.3702C106.81 41.3702 108.99 44.9702 111.94 49.9102C114.24 53.8502 118.18 56.9702 120.53 57.4502C119.59 60.4502 114.76 63.3402 113.29 63.5102L113.28 63.5202Z" fill="#141414"/>
<path d="M21.7901 99.7904C20.6201 100.46 19.6601 100.79 18.7601 100.79C18.6301 100.79 18.4901 100.76 18.3901 100.76C18.0601 99.7604 17.8901 97.9304 17.8901 97.2604C16.9201 98.1304 15.4301 98.9604 14.2301 98.9604C10.9701 98.9604 8.37012 97.1604 8.37012 93.8004C8.37012 89.9404 10.9301 86.9704 14.7301 86.9704C15.6001 86.9704 16.6901 87.2704 17.5601 87.7404V86.0104C17.4901 82.5504 16.9901 82.4804 15.8301 82.4504C13.9301 82.4504 12.1001 83.5204 11.1701 84.4804C10.1401 83.6504 9.94012 81.6504 10.0701 80.3804C11.6701 79.2104 13.5001 78.6504 15.5301 78.6504C20.0901 78.6504 21.7901 80.8804 21.7901 86.3404C21.7901 87.7704 21.6901 91.2704 21.6901 92.2304C21.6901 95.8604 22.0901 97.9904 22.9901 98.6904C22.8201 98.7904 22.3201 99.4904 21.7901 99.7904ZM14.7701 89.8404C13.5701 89.8404 12.6701 91.9004 12.6701 93.1404C12.6701 95.0704 13.4401 95.9004 14.5301 95.9004C15.5301 95.9004 16.7901 95.0704 17.2901 93.9704C17.6601 93.0704 17.9801 92.3304 17.6901 91.5104C17.2501 90.2904 15.8901 89.8404 14.7601 89.8404H14.7701Z" fill="#141414"/>
<path d="M60.83 103.26C58.14 107.34 54.13 108.99 50.75 108.99C48.25 108.99 45.81 107.59 43.18 105.27L42.87 108.93L42.49 117.58C42.3 120.08 42.05 123.43 41.49 127.45L41.11 131.9C38.42 131.84 35.6 131.35 33.29 130.44C33.98 125.93 34.48 121.79 34.85 118.8L35.1 116.85C35.23 115.75 35.23 114.23 35.29 112.46L35.48 107.71C35.92 103.99 36.86 89.4305 36.86 86.3805C36.86 83.5805 36.61 80.9005 36.05 78.5205C38.62 77.4205 40.68 76.8105 42.37 76.8105C42.81 76.8105 44.44 76.7505 46 77.4205C45.87 77.8505 45.5 80.6505 45.44 82.0505C47.51 80.1005 50.57 78.7605 53.08 78.7605C53.46 78.7605 53.71 78.7605 54.02 78.8205C60.72 80.0405 63.91 86.8605 63.91 92.5905C63.91 93.0205 63.85 93.5005 63.85 93.9305C63.6 96.8505 62.6 100.57 60.85 103.25L60.83 103.26ZM55.95 89.7905C55.43 85.3805 53.25 85.0205 52.22 85.0205C48.9 85.0205 45.78 87.2905 44.62 90.7705C44.49 91.1705 44.24 92.4205 44.24 92.4205C44.05 94.4005 43.44 97.3705 43.86 98.6405C44.23 99.7305 44.89 100.09 44.89 100.09C46.64 101.55 48.05 101.81 49.05 101.93H49.93C51.18 101.75 52.37 101.02 53.56 99.6805L54.31 98.5805C55.5 96.8105 55.94 94.6805 56.19 92.5505V91.9405C56.19 91.0905 56.06 90.3605 55.94 89.8105L55.95 89.7905Z" fill="#141414"/>
<path d="M84.18 105.2C85 105.2 86.75 104.93 89.05 104.65C88.72 107.61 87.74 110.35 86.04 113.08L83.08 112.53C69.39 110.18 66.27 101.3 66.27 93.5804C66.27 84.0504 72.4 78.3604 77.88 78.3604H78.65C86.21 78.8004 89.99 84.2704 89.99 94.5104V95.3904L73.78 98.3503C75.2 103 78.65 105.19 84.18 105.19V105.2ZM78.1 84.1804C75.31 84.1804 73.12 88.9404 73.12 92.8904L82.21 91.2504C81.94 86.1004 81.11 84.1904 78.1 84.1904V84.1804Z" fill="#141414"/>
<path d="M103.8 90.6902C103.8 92.2702 103.75 96.4802 103.75 103.06C103.75 105.5 104.45 108.24 105.74 108.24C107.03 108.24 108.97 104.89 109.4 103.18C111.5 103.36 113.11 104.15 114.4 105.92C112.46 113.35 107.73 116.46 103.32 116.46C102.94 116.46 102.41 116.4 101.92 116.22H101.97C98.3699 115.43 96.8599 111.89 96.8599 105.38V99.4702C96.8599 98.7402 96.9099 97.9501 96.9099 97.0901V91.3602L92.3899 91.7302V84.7202C93.6799 84.7202 95.9899 84.7202 96.7499 84.6602C96.7499 77.5902 97.0699 74.3602 97.6599 65.5302C98.3599 65.4702 99.0599 65.4102 99.7599 65.4102C101.48 65.4102 103.04 65.7102 104.44 66.3202C103.9 72.6002 103.58 78.6302 103.58 83.8702L108.85 83.3801L113.64 83.0102C114.34 84.6502 114.23 86.4202 114.23 87.4602C114.23 88.5002 114.12 89.7801 114.01 90.4501C111.16 90.5701 108.15 90.3302 103.79 90.6902H103.8Z" fill="#141414"/>
<path d="M23.44 103.62H8.26001V107.84H23.44V103.62Z" fill="#141414"/>
</g>
<defs>
<clipPath id="clip0_327_184">
<rect width="120.02" height="131.89" fill="white" transform="translate(0.5)"/>
</clipPath>
</defs>
</svg>
