<svg width="2626" height="789" viewBox="0 0 2626 789" fill="none" xmlns="http://www.w3.org/2000/svg">
<path d="M85.9107 562.291C72.5468 562.291 61.2511 557.677 52.0237 548.45C42.7962 539.223 38.1825 527.927 38.1825 514.563C38.1825 501.199 42.7962 489.903 52.0237 480.676C61.2511 471.449 72.5468 466.835 85.9107 466.835C99.2745 466.835 110.57 471.449 119.798 480.676C129.025 489.903 133.639 501.199 133.639 514.563C133.639 527.927 129.025 539.223 119.798 548.45C110.57 557.677 99.2745 562.291 85.9107 562.291ZM171.821 485.926C158.457 485.926 147.162 481.312 137.934 472.085C128.707 462.858 124.093 451.562 124.093 438.198C124.093 424.834 128.707 413.538 137.934 404.311C147.162 395.084 158.457 390.47 171.821 390.47C185.185 390.47 196.481 395.084 205.708 404.311C214.936 413.538 219.55 424.834 219.55 438.198C219.55 451.562 214.936 462.858 205.708 472.085C196.481 481.312 185.185 485.926 171.821 485.926ZM286.369 485.926C273.005 485.926 261.709 481.312 252.482 472.085C243.254 462.858 238.641 451.562 238.641 438.198C238.641 424.834 243.254 413.538 252.482 404.311C261.709 395.084 273.005 390.47 286.369 390.47C299.733 390.47 311.028 395.084 320.256 404.311C329.483 413.538 334.097 424.834 334.097 438.198C334.097 451.562 329.483 462.858 320.256 472.085C311.028 481.312 299.733 485.926 286.369 485.926ZM372.28 562.291C358.916 562.291 347.62 557.677 338.393 548.45C329.165 539.223 324.551 527.927 324.551 514.563C324.551 501.199 329.165 489.903 338.393 480.676C347.62 471.449 358.916 466.835 372.28 466.835C385.644 466.835 396.939 471.449 406.167 480.676C415.394 489.903 420.008 501.199 420.008 514.563C420.008 527.927 415.394 539.223 406.167 548.45C396.939 557.677 385.644 562.291 372.28 562.291ZM126.957 753.204C112.638 753.204 100.627 747.715 90.9221 736.738C81.2174 725.76 76.365 712.794 76.365 697.839C76.365 681.293 82.0129 666.816 93.3085 654.407C104.604 641.997 115.82 629.747 126.957 617.656C136.184 607.792 144.139 597.053 150.821 585.439C157.503 573.825 165.458 562.928 174.685 552.746C181.685 544.473 189.799 537.632 199.026 532.222C208.254 526.813 218.277 524.109 229.095 524.109C239.914 524.109 249.936 526.654 259.164 531.745C268.391 536.836 276.505 543.518 283.505 551.791C292.414 561.973 300.29 572.95 307.131 584.723C313.972 596.496 322.006 607.474 331.233 617.656C342.37 629.747 353.586 641.997 364.882 654.407C376.177 666.816 381.825 681.293 381.825 697.839C381.825 712.794 376.973 725.76 367.268 736.738C357.563 747.715 345.552 753.204 331.233 753.204C314.051 753.204 297.028 751.772 280.164 748.908C263.3 746.045 246.277 744.613 229.095 744.613C211.913 744.613 194.89 746.045 178.026 748.908C161.162 751.772 144.139 753.204 126.957 753.204Z" fill="black"/>
<path d="M426.226 231.482C412.862 231.482 401.567 226.868 392.339 217.64C383.112 208.413 378.498 197.117 378.498 183.753C378.498 170.39 383.112 159.094 392.339 149.866C401.567 140.639 412.862 136.025 426.226 136.025C439.59 136.025 450.886 140.639 460.113 149.866C469.341 159.094 473.954 170.39 473.954 183.753C473.954 197.117 469.341 208.413 460.113 217.64C450.886 226.868 439.59 231.482 426.226 231.482ZM512.137 155.117C498.773 155.117 487.477 150.503 478.25 141.275C469.023 132.048 464.409 120.752 464.409 107.388C464.409 94.0245 469.023 82.7288 478.25 73.5014C487.477 64.2739 498.773 59.6602 512.137 59.6602C525.501 59.6602 536.797 64.2739 546.024 73.5014C555.251 82.7288 559.865 94.0245 559.865 107.388C559.865 120.752 555.251 132.048 546.024 141.275C536.797 150.503 525.501 155.117 512.137 155.117ZM626.685 155.117C613.321 155.117 602.025 150.503 592.798 141.275C583.57 132.048 578.956 120.752 578.956 107.388C578.956 94.0245 583.57 82.7288 592.798 73.5014C602.025 64.2739 613.321 59.6602 626.685 59.6602C640.048 59.6602 651.344 64.2739 660.572 73.5014C669.799 82.7288 674.413 94.0245 674.413 107.388C674.413 120.752 669.799 132.048 660.572 141.275C651.344 150.503 640.048 155.117 626.685 155.117ZM712.595 231.482C699.231 231.482 687.936 226.868 678.708 217.64C669.481 208.413 664.867 197.117 664.867 183.753C664.867 170.39 669.481 159.094 678.708 149.866C687.936 140.639 699.231 136.025 712.595 136.025C725.959 136.025 737.255 140.639 746.482 149.866C755.71 159.094 760.323 170.39 760.323 183.753C760.323 197.117 755.71 208.413 746.482 217.64C737.255 226.868 725.959 231.482 712.595 231.482ZM467.273 422.394C452.954 422.394 440.943 416.905 431.238 405.928C421.533 394.951 416.681 381.984 416.681 367.03C416.681 350.484 422.329 336.006 433.624 323.597C444.92 311.188 456.136 298.937 467.273 286.846C476.5 276.982 484.455 266.244 491.137 254.63C497.819 243.016 505.773 232.118 515.001 221.936C522.001 213.663 530.115 206.822 539.342 201.413C548.57 196.004 558.592 193.299 569.411 193.299C580.229 193.299 590.252 195.845 599.48 200.936C608.707 206.027 616.821 212.708 623.821 220.981C632.73 231.163 640.605 242.141 647.446 253.914C654.287 265.687 662.322 276.664 671.549 286.846C682.686 298.937 693.902 311.188 705.197 323.597C716.493 336.006 722.141 350.484 722.141 367.03C722.141 381.984 717.289 394.951 707.584 405.928C697.879 416.905 685.868 422.394 671.549 422.394C654.367 422.394 637.344 420.962 620.48 418.099C603.616 415.235 586.593 413.803 569.411 413.803C552.229 413.803 535.206 415.235 518.342 418.099C501.478 420.962 484.455 422.394 467.273 422.394Z" fill="black"/>
<path d="M1034.77 429.06C1033.51 429.06 1031.2 429.06 1027.84 429.06C1024.62 428.92 1021.33 428.85 1017.97 428.85C1014.75 428.71 1012.37 428.64 1010.83 428.64C1006.63 428.64 1002.22 428.71 997.596 428.85C993.116 428.99 988.706 429.06 984.366 429.06V390.63C988.706 390.63 993.116 390.7 997.596 390.84C1002.22 390.98 1006.63 391.05 1010.83 391.05C1012.37 391.05 1014.75 391.05 1017.97 391.05C1021.33 390.91 1024.62 390.84 1027.84 390.84C1031.2 390.7 1033.51 390.63 1034.77 390.63H1105.54C1106.94 390.63 1109.25 390.7 1112.47 390.84C1115.83 390.84 1119.12 390.91 1122.34 391.05C1125.7 391.05 1128.08 391.05 1129.48 391.05C1133.82 391.05 1138.23 390.98 1142.71 390.84C1147.19 390.7 1151.6 390.63 1155.94 390.63V429.06C1151.6 429.06 1147.19 428.99 1142.71 428.85C1138.23 428.71 1133.82 428.64 1129.48 428.64C1128.08 428.64 1125.7 428.71 1122.34 428.85C1119.12 428.85 1115.83 428.92 1112.47 429.06C1109.25 429.06 1106.94 429.06 1105.54 429.06H1034.77ZM1011.25 558C1007.89 558.56 1004.18 558.98 1000.12 559.26C996.056 559.54 992.206 559.68 988.566 559.68C985.486 559.68 981.846 559.54 977.646 559.26C973.446 558.98 969.736 558.56 966.516 558V271.14C969.736 270.44 973.446 270.02 977.646 269.88C981.846 269.6 985.486 269.46 988.566 269.46C992.206 269.46 996.056 269.6 1000.12 269.88C1004.18 270.02 1007.89 270.44 1011.25 271.14V359.97C1011.25 365.85 1011.18 371.1 1011.04 375.72C1010.9 380.2 1010.83 385.31 1010.83 391.05V428.64C1010.83 434.24 1010.9 439.35 1011.04 443.97C1011.18 448.59 1011.25 453.84 1011.25 459.72V558ZM1129.06 459.72C1129.06 453.84 1129.13 448.59 1129.27 443.97C1129.41 439.35 1129.48 434.24 1129.48 428.64V391.05C1129.48 385.31 1129.41 380.2 1129.27 375.72C1129.13 371.1 1129.06 365.85 1129.06 359.97V271.14C1132.42 270.44 1136.06 270.02 1139.98 269.88C1144.04 269.6 1147.75 269.46 1151.11 269.46C1154.47 269.46 1158.25 269.6 1162.45 269.88C1166.65 270.02 1170.43 270.44 1173.79 271.14V558C1170.29 558.56 1166.58 558.98 1162.66 559.26C1158.74 559.54 1154.96 559.68 1151.32 559.68C1147.82 559.68 1144.04 559.54 1139.98 559.26C1136.06 558.98 1132.42 558.56 1129.06 558V459.72ZM1230.19 501.72C1230.19 485.62 1233.69 472.46 1240.69 462.24C1247.83 451.88 1257.42 444.25 1269.46 439.35C1281.64 434.45 1295.36 432 1310.62 432C1318.32 432 1327.14 432.35 1337.08 433.05C1347.02 433.75 1356.26 435.08 1364.8 437.04V466.23C1357.24 464.41 1348.77 463.29 1339.39 462.87C1330.15 462.31 1321.47 462.03 1313.35 462.03C1300.61 462.03 1290.74 465.32 1283.74 471.9C1276.74 478.34 1273.24 487.23 1273.24 498.57C1273.24 507.11 1275.69 514.39 1280.59 520.41C1285.49 526.29 1292.49 529.23 1301.59 529.23C1311.81 529.23 1322.59 525.66 1333.93 518.52C1345.27 511.38 1354.86 500.88 1362.7 487.02L1369.42 520.2C1364.38 526.08 1358.15 532.38 1350.73 539.1C1343.31 545.82 1334.7 551.56 1324.9 556.32C1315.24 561.08 1304.25 563.46 1291.93 563.46C1278.07 563.46 1266.52 560.38 1257.28 554.22C1248.18 548.06 1241.39 540.29 1236.91 530.91C1232.43 521.39 1230.19 511.66 1230.19 501.72ZM1405.33 538.68C1404.35 542.6 1402.25 546.8 1399.03 551.28C1395.95 555.62 1392.66 558.91 1389.16 561.15C1380.34 559.33 1373.2 556.04 1367.74 551.28C1362.28 546.52 1358.22 540.85 1355.56 534.27C1352.9 527.55 1351.29 520.48 1350.73 513.06V418.35C1350.73 405.19 1347.72 395.74 1341.7 390C1335.82 384.12 1327.42 381.18 1316.5 381.18C1306 381.18 1295.15 382.79 1283.95 386.01C1272.75 389.23 1261.55 393.01 1250.35 397.35C1246.99 393.85 1244.12 389.09 1241.74 383.07C1239.5 376.91 1238.24 371.03 1237.96 365.43C1245.8 362.07 1254.62 358.92 1264.42 355.98C1274.36 353.04 1284.58 350.73 1295.08 349.05C1305.58 347.23 1315.59 346.32 1325.11 346.32C1338.97 346.32 1351.01 348.84 1361.23 353.88C1371.45 358.92 1379.36 366.62 1384.96 376.98C1390.7 387.34 1393.57 400.57 1393.57 416.67V502.77C1393.57 510.61 1394.34 517.54 1395.88 523.56C1397.42 529.44 1400.57 534.48 1405.33 538.68ZM1565.12 430.74C1565.54 421.64 1564.7 413.17 1562.6 405.33C1560.64 397.35 1556.93 390.91 1551.47 386.01C1546.15 380.97 1538.38 378.45 1528.16 378.45C1514.86 378.45 1504.5 384.89 1497.08 397.77C1489.8 410.51 1486.16 429.76 1486.16 455.52C1486.16 480.72 1490.29 499.13 1498.55 510.75C1506.95 522.23 1518.64 527.97 1533.62 527.97C1543.14 527.97 1552.17 525.8 1560.71 521.46C1569.39 517.12 1577.37 512.15 1584.65 506.55C1588.43 508.93 1592.14 512.71 1595.78 517.89C1599.56 522.93 1601.94 527.83 1602.92 532.59C1593.4 541.83 1582.13 549.32 1569.11 555.06C1556.09 560.66 1542.02 563.46 1526.9 563.46C1511.92 563.46 1499.04 560.59 1488.26 554.85C1477.48 549.11 1468.59 541.27 1461.59 531.33C1454.73 521.25 1449.62 509.7 1446.26 496.68C1442.9 483.66 1441.22 469.94 1441.22 455.52C1441.22 436.06 1443.67 419.4 1448.57 405.54C1453.47 391.54 1460.12 380.13 1468.52 371.31C1476.92 362.35 1486.3 355.77 1496.66 351.57C1507.16 347.37 1518.01 345.27 1529.21 345.27C1541.95 345.27 1553.08 347.16 1562.6 350.94C1572.12 354.72 1580.03 359.76 1586.33 366.06C1592.77 372.22 1597.53 379.01 1600.61 386.43C1603.69 393.85 1605.23 401.2 1605.23 408.48C1605.23 415.9 1603.48 421.78 1599.98 426.12C1596.48 430.46 1590.88 432.63 1583.18 432.63C1579.68 432.63 1576.53 432.49 1573.73 432.21C1570.93 431.93 1568.06 431.44 1565.12 430.74ZM1696.24 558C1693.3 558.56 1689.94 558.98 1686.16 559.26C1682.52 559.54 1678.67 559.68 1674.61 559.68C1666.77 559.68 1659.77 559.12 1653.61 558V251.82L1656.34 249.09H1672.72C1681.82 249.09 1687.98 251.33 1691.2 255.81C1694.56 260.15 1696.24 267.15 1696.24 276.81V558ZM1804.39 514.53C1807.75 523.07 1810.97 530 1814.05 535.32C1817.13 540.64 1820.63 544.7 1824.55 547.5C1821.47 551.14 1817.27 554.29 1811.95 556.95C1806.63 559.47 1801.1 560.73 1795.36 560.73C1787.66 560.73 1781.99 558.7 1778.35 554.64C1774.71 550.58 1771.28 544.49 1768.06 536.37L1751.05 495.21C1746.71 484.29 1742.09 477.01 1737.19 473.37C1732.29 469.59 1725.01 467.7 1715.35 467.7C1711.29 467.7 1707.16 467.84 1702.96 468.12C1698.76 468.4 1694.21 468.82 1689.31 469.38L1674.19 470.85V439.35H1730.26C1745.52 439.35 1757.77 442.5 1767.01 448.8C1776.39 455.1 1784.09 465.46 1790.11 479.88L1804.39 514.53ZM1765.33 425.91C1759.59 435.43 1752.52 442.29 1744.12 446.49C1735.72 450.69 1725.5 452.79 1713.46 452.79H1678.6V433.05L1710.31 431.79C1712.69 431.79 1714.58 431.3 1715.98 430.32C1717.52 429.34 1718.99 427.8 1720.39 425.7L1757.14 367.53C1760.64 361.65 1764.42 357.17 1768.48 354.09C1772.68 350.87 1778.42 349.26 1785.7 349.26C1790.04 349.26 1793.96 349.33 1797.46 349.47C1800.96 349.47 1804.67 349.61 1808.59 349.89L1811.11 353.25L1765.33 425.91ZM1849.94 501.72C1849.94 485.62 1853.44 472.46 1860.44 462.24C1867.58 451.88 1877.17 444.25 1889.21 439.35C1901.39 434.45 1915.11 432 1930.37 432C1938.07 432 1946.89 432.35 1956.83 433.05C1966.77 433.75 1976.01 435.08 1984.55 437.04V466.23C1976.99 464.41 1968.52 463.29 1959.14 462.87C1949.9 462.31 1941.22 462.03 1933.1 462.03C1920.36 462.03 1910.49 465.32 1903.49 471.9C1896.49 478.34 1892.99 487.23 1892.99 498.57C1892.99 507.11 1895.44 514.39 1900.34 520.41C1905.24 526.29 1912.24 529.23 1921.34 529.23C1931.56 529.23 1942.34 525.66 1953.68 518.52C1965.02 511.38 1974.61 500.88 1982.45 487.02L1989.17 520.2C1984.13 526.08 1977.9 532.38 1970.48 539.1C1963.06 545.82 1954.45 551.56 1944.65 556.32C1934.99 561.08 1924 563.46 1911.68 563.46C1897.82 563.46 1886.27 560.38 1877.03 554.22C1867.93 548.06 1861.14 540.29 1856.66 530.91C1852.18 521.39 1849.94 511.66 1849.94 501.72ZM2025.08 538.68C2024.1 542.6 2022 546.8 2018.78 551.28C2015.7 555.62 2012.41 558.91 2008.91 561.15C2000.09 559.33 1992.95 556.04 1987.49 551.28C1982.03 546.52 1977.97 540.85 1975.31 534.27C1972.65 527.55 1971.04 520.48 1970.48 513.06V418.35C1970.48 405.19 1967.47 395.74 1961.45 390C1955.57 384.12 1947.17 381.18 1936.25 381.18C1925.75 381.18 1914.9 382.79 1903.7 386.01C1892.5 389.23 1881.3 393.01 1870.1 397.35C1866.74 393.85 1863.87 389.09 1861.49 383.07C1859.25 376.91 1857.99 371.03 1857.71 365.43C1865.55 362.07 1874.37 358.92 1884.17 355.98C1894.11 353.04 1904.33 350.73 1914.83 349.05C1925.33 347.23 1935.34 346.32 1944.86 346.32C1958.72 346.32 1970.76 348.84 1980.98 353.88C1991.2 358.92 1999.11 366.62 2004.71 376.98C2010.45 387.34 2013.32 400.57 2013.32 416.67V502.77C2013.32 510.61 2014.09 517.54 2015.63 523.56C2017.17 529.44 2020.32 534.48 2025.08 538.68ZM2093.26 348.84C2102.5 348.84 2109.22 351.85 2113.42 357.87C2117.76 363.75 2119.93 372.08 2119.93 382.86V620.79C2119.93 630.31 2118.25 637.31 2114.89 641.79C2111.67 646.27 2105.51 648.51 2096.41 648.51H2080.03L2077.3 645.78V351.57L2080.03 348.84H2093.26ZM2248.66 451.74C2248.66 476.8 2244.74 497.45 2236.9 513.69C2229.06 529.93 2218.98 541.97 2206.66 549.81C2194.34 557.65 2181.46 561.57 2168.02 561.57C2154.72 561.57 2142.4 558.84 2131.06 553.38C2119.86 547.78 2109.43 541.41 2099.77 534.27L2104.6 500.04C2112.72 506.34 2121.68 512.43 2131.48 518.31C2141.42 524.05 2151.64 526.92 2162.14 526.92C2169.98 526.92 2177.05 524.26 2183.35 518.94C2189.79 513.48 2194.9 505.15 2198.68 493.95C2202.6 482.75 2204.56 468.61 2204.56 451.53C2204.56 434.87 2202.74 421.43 2199.1 411.21C2195.6 400.85 2190.98 393.29 2185.24 388.53C2179.5 383.77 2173.2 381.39 2166.34 381.39C2159.34 381.39 2151.99 383.28 2144.29 387.06C2136.59 390.84 2129.45 396.72 2122.87 404.7C2116.29 412.68 2111.18 422.97 2107.54 435.57L2098.72 403.44C2101.38 394.06 2106.35 384.89 2113.63 375.93C2120.91 366.97 2129.87 359.62 2140.51 353.88C2151.29 348.14 2163.26 345.27 2176.42 345.27C2192.38 345.27 2205.68 349.82 2216.32 358.92C2227.1 367.88 2235.15 380.34 2240.47 396.3C2245.93 412.26 2248.66 430.74 2248.66 451.74ZM2313.04 468.12V436.62H2414.89V431.16C2414.89 421.36 2413.49 412.4 2410.69 404.28C2408.03 396.02 2403.62 389.44 2397.46 384.54C2391.44 379.64 2383.39 377.19 2373.31 377.19C2359.03 377.19 2348.32 383.21 2341.18 395.25C2334.04 407.29 2330.47 423.88 2330.47 445.02V458.25C2330.47 471.41 2331.8 483.31 2334.46 493.95C2337.26 504.45 2342.16 512.78 2349.16 518.94C2356.16 524.96 2366.1 527.97 2378.98 527.97C2389.48 527.97 2399.63 526.5 2409.43 523.56C2419.23 520.48 2428.54 516.63 2437.36 512.01C2441 515.51 2444.01 519.92 2446.39 525.24C2448.91 530.42 2450.45 535.25 2451.01 539.73C2441.07 547.01 2429.1 552.82 2415.1 557.16C2401.24 561.36 2386.96 563.46 2372.26 563.46C2355.6 563.46 2341.67 560.52 2330.47 554.64C2319.41 548.76 2310.59 540.71 2304.01 530.49C2297.57 520.13 2292.88 508.44 2289.94 495.42C2287.14 482.4 2285.74 468.82 2285.74 454.68C2285.74 433.82 2288.96 415.13 2295.4 398.61C2301.98 382.09 2311.78 369.07 2324.8 359.55C2337.82 350.03 2353.99 345.27 2373.31 345.27C2391.51 345.27 2406.77 349.26 2419.09 357.24C2431.55 365.22 2440.93 376 2447.23 389.58C2453.53 403.02 2456.68 418.07 2456.68 434.73C2456.68 441.45 2456.4 447.26 2455.84 452.16C2455.42 456.92 2454.65 462.24 2453.53 468.12H2313.04ZM2518.2 313.98C2518.2 304.32 2519.81 297.32 2523.03 292.98C2526.25 288.5 2532.41 286.26 2541.51 286.26H2557.89L2560.62 289.2V507.18C2560.62 512.78 2561.95 517.26 2564.61 520.62C2567.27 523.84 2571.75 525.45 2578.05 525.45H2607.03C2609.27 532.03 2610.39 539.31 2610.39 547.29C2610.39 548.83 2610.32 550.44 2610.18 552.12C2610.18 553.8 2609.97 555.34 2609.55 556.74C2602.55 557.58 2595.06 558.28 2587.08 558.84C2579.1 559.54 2570.98 559.89 2562.72 559.89C2548.44 559.89 2537.45 556.32 2529.75 549.18C2522.05 541.9 2518.2 531.05 2518.2 516.63V313.98ZM2612.49 350.31C2613.89 355.49 2614.59 360.74 2614.59 366.06C2614.59 371.94 2613.89 377.33 2612.49 382.23L2543.82 381.39L2487.33 382.23C2486.21 377.05 2485.65 371.66 2485.65 366.06C2485.65 361.02 2486.21 355.77 2487.33 350.31L2544.45 351.15L2612.49 350.31Z" fill="black"/>
</svg>
